<?xml version="1.0" encoding="utf-8"?>
<svg xmlns="http://www.w3.org/2000/svg" width="175" height="40" viewBox="0 0 175 40">
  <g id="Group_16894" data-name="Group 16894" transform="translate(-6463 -7696)">
    <g id="vayana-new-logo-01_1_" data-name="vayana-new-logo-01 (1)" transform="translate(6463 7696)">
      <g id="Group_16887" data-name="Group 16887" transform="translate(52.46 9.346)">
        <g id="Group_16886" data-name="Group 16886">
          <g id="Group_16885" data-name="Group 16885">
            <path id="Path_42043" data-name="Path 42043" d="M56.6,10.4h4.019L66.88,26.475,73.142,10.4h4.019L68.469,31.428H65.2Z" transform="translate(-56.6 -10.4)" fill="#293978"/>
            <path id="Path_42044" data-name="Path 42044" d="M84.052,10.2h3.364l9.159,21.028H92.744l-2.15-5.047H80.688l-2.15,5.047H74.8Zm5.234,12.71L85.641,14.5,82.09,22.91Z" transform="translate(-57.791 -10.2)" fill="#293978"/>
            <path id="Path_42045" data-name="Path 42045" d="M102.118,23.01,93.8,10.3h4.393l5.794,9.252,5.888-9.252h4.206l-8.318,12.617v8.318h-3.738V23.01Z" transform="translate(-59.033 -10.3)" fill="#293978"/>
            <path id="Path_42046" data-name="Path 42046" d="M120.446,10.2h3.364l9.159,21.028h-3.925l-2.15-5.047h-9.907l-2.15,5.047H111.1Zm5.327,12.71L122.128,14.5l-3.551,8.411Z" transform="translate(-60.165 -10.2)" fill="#293978"/>
            <path id="Path_42047" data-name="Path 42047" d="M137.2,10.4h3.365L151.78,24.886V10.4h3.645V31.335H152.34l-11.5-14.86v14.86H137.2Z" transform="translate(-61.873 -10.4)" fill="#293978"/>
            <path id="Path_42048" data-name="Path 42048" d="M168.446,10.2h3.365l9.159,21.028h-3.925l-2.15-5.047h-9.907l-2.15,5.047H159.1Zm5.234,12.71L170.035,14.5l-3.551,8.411Z" transform="translate(-63.305 -10.2)" fill="#293978"/>
          </g>
        </g>
      </g>
      <g id="Group_16891" data-name="Group 16891">
        <g id="Group_16890" data-name="Group 16890">
          <g id="Group_16889" data-name="Group 16889">
            <g id="Group_16888" data-name="Group 16888">
              <path id="Path_42049" data-name="Path 42049" d="M25.234,40l1.589-2.43L2.991,0H0Z" fill="#cd2627" fill-rule="evenodd"/>
              <path id="Path_42050" data-name="Path 42050" d="M29.163,34.58l1.5-2.43L10.284,0H7.2Z" transform="translate(-0.471)" fill="#cd2627" fill-rule="evenodd"/>
              <path id="Path_42051" data-name="Path 42051" d="M33.211,28.972l1.5-2.43L17.884,0H14.8Z" transform="translate(-0.968)" fill="#cd2627" fill-rule="evenodd"/>
              <path id="Path_42052" data-name="Path 42052" d="M25.4,37.57,26.9,40,52.223,0H49.138Z" transform="translate(-1.662)" fill="#293978" fill-rule="evenodd"/>
              <path id="Path_42053" data-name="Path 42053" d="M21.7,32.056l1.5,2.336L44.971,0H41.887Z" transform="translate(-1.42)" fill="#293978" fill-rule="evenodd"/>
              <path id="Path_42054" data-name="Path 42054" d="M17.9,26.449l1.5,2.336L37.62,0H34.536Z" transform="translate(-1.171)" fill="#293978" fill-rule="evenodd"/>
            </g>
          </g>
        </g>
      </g>
    </g>
    <g id="Group_16893" data-name="Group 16893" transform="translate(6629.906 7705.346)">
      <g id="Group_16892" data-name="Group 16892" transform="translate(0 0)">
        <path id="Path_42095" data-name="Path 42095" d="M230.982-85.262H229.7v-.694h3.335v.694H231.75V-81.9h-.764Z" transform="translate(-229.7 85.956)" fill="#293978"/>
        <path id="Path_42096" data-name="Path 42096" d="M237.608-84.838l-1.32,1.76h-.151l-1.29-1.766V-81.9h-.764V-85.95h.879l1.268,1.744L237.5-85.95h.874V-81.9h-.764Z" transform="translate(-230.279 85.955)" fill="#293978"/>
      </g>
    </g>
  </g>
</svg>
